<svg xmlns="http://www.w3.org/2000/svg" xmlns:xlink="http://www.w3.org/1999/xlink" width="1920" zoomAndPan="magnify" viewBox="0 0 1440 809.999993" height="1080" preserveAspectRatio="xMidYMid meet" version="1.0"><defs><clipPath id="a34a8c19be"><path d="M 1296 628.394531 L 1421 628.394531 L 1421 743.894531 L 1296 743.894531 Z M 1296 628.394531 " clip-rule="nonzero"/></clipPath></defs><rect x="-144" width="1728" fill="#ffffff" y="-80.999999" height="971.999992" fill-opacity="1"/><rect x="-144" width="1728" fill="#f4efec" y="-80.999999" height="971.999992" fill-opacity="1"/><path fill="#ffffff" d="M 1060.59375 734.597656 C 1051.933594 734.507812 1043.097656 733.734375 1033.574219 732.25 L 1034.667969 725.234375 C 1043.851562 726.664062 1052.351562 727.402344 1060.671875 727.492188 Z M 215.726562 734.570312 L 215.585938 727.464844 C 223.890625 727.296875 232.398438 726.488281 241.582031 724.996094 L 242.726562 732.011719 C 233.207031 733.558594 224.378906 734.390625 215.726562 734.570312 Z M 629.101562 734.390625 C 620.511719 733.964844 611.710938 732.910156 602.207031 731.152344 L 603.496094 724.160156 C 612.6875 725.855469 621.179688 726.878906 629.457031 727.285156 Z M 647.226562 734.3125 L 646.8125 727.214844 C 655.070312 726.726562 663.5625 725.644531 672.753906 723.886719 L 674.085938 730.867188 C 664.589844 732.679688 655.796875 733.804688 647.226562 734.3125 Z M 197.617188 733.949219 C 189.109375 733.210938 180.363281 731.886719 170.867188 729.890625 L 172.332031 722.933594 C 181.542969 724.871094 190.015625 726.160156 198.230469 726.871094 Z M 1078.691406 733.804688 L 1078.027344 726.738281 C 1086.234375 725.964844 1094.695312 724.613281 1103.90625 722.625 L 1105.40625 729.570312 C 1095.914062 731.621094 1087.175781 733.007812 1078.691406 733.804688 Z M 1015.882812 728.824219 C 1007.925781 727.003906 999.425781 724.71875 989.914062 721.851562 L 991.964844 715.046875 C 1001.320312 717.871094 1009.660156 720.109375 1017.464844 721.894531 Z M 260.375 728.484375 L 258.757812 721.566406 C 266.527344 719.753906 274.859375 717.480469 284.230469 714.621094 L 286.300781 721.417969 C 276.777344 724.320312 268.296875 726.628906 260.375 728.484375 Z M 584.625 727.3125 C 576.824219 725.359375 568.371094 722.953125 558.796875 719.949219 L 560.929688 713.175781 C 570.367188 716.140625 578.691406 718.511719 586.355469 720.429688 Z M 691.617188 726.941406 L 689.867188 720.058594 C 697.488281 718.113281 705.800781 715.714844 715.269531 712.722656 L 717.410156 719.5 C 707.808594 722.527344 699.371094 724.96875 691.617188 726.941406 Z M 153.417969 725.679688 C 145.699219 723.601562 137.535156 721.160156 127.714844 717.988281 L 129.898438 711.230469 C 139.605469 714.363281 147.660156 716.78125 155.253906 718.824219 Z M 1122.824219 725.28125 L 1120.949219 718.421875 C 1128.507812 716.355469 1136.5625 713.921875 1146.289062 710.757812 L 1148.484375 717.519531 C 1138.640625 720.722656 1130.488281 723.191406 1122.824219 725.28125 Z M 972.890625 716.453125 C 966.894531 714.480469 960.8125 712.417969 954.929688 710.429688 C 952.488281 709.605469 950.046875 708.777344 947.605469 707.953125 L 949.867188 701.21875 C 952.3125 702.046875 954.761719 702.871094 957.203125 703.699219 C 963.074219 705.6875 969.140625 707.738281 975.101562 709.703125 Z M 303.296875 715.988281 L 301.070312 709.238281 C 306.558594 707.429688 312.144531 705.535156 317.542969 703.707031 C 320.464844 702.722656 323.386719 701.726562 326.308594 700.75 L 328.574219 707.480469 C 325.652344 708.457031 322.738281 709.453125 319.824219 710.4375 C 314.410156 712.269531 308.8125 714.160156 303.296875 715.988281 Z M 541.832031 714.417969 C 537.898438 713.105469 533.957031 711.769531 530.019531 710.429688 C 525.542969 708.910156 521.058594 707.394531 516.582031 705.902344 L 518.832031 699.160156 C 523.324219 700.652344 527.808594 702.179688 532.304688 703.699219 C 536.230469 705.03125 540.164062 706.363281 544.089844 707.675781 Z M 734.34375 713.949219 L 732.089844 707.214844 C 735.535156 706.0625 738.992188 704.886719 742.4375 703.726562 C 747.410156 702.039062 752.382812 700.359375 757.355469 698.707031 L 759.59375 705.449219 C 754.640625 707.089844 749.675781 708.769531 744.71875 710.449219 C 741.265625 711.621094 737.800781 712.792969 734.34375 713.949219 Z M 110.804688 712.375 L 105.023438 710.421875 C 98.644531 708.261719 92.046875 706.023438 85.5625 703.910156 L 87.773438 697.160156 C 94.285156 699.292969 100.902344 701.53125 107.304688 703.699219 L 113.078125 705.652344 Z M 1165.382812 711.894531 L 1163.109375 705.164062 L 1167.398438 703.707031 C 1174.28125 701.378906 1181.40625 698.964844 1188.421875 696.683594 L 1190.625 703.441406 C 1183.652344 705.707031 1176.554688 708.113281 1169.683594 710.4375 Z M 930.78125 702.394531 C 921.121094 699.292969 913.054688 696.902344 905.410156 694.886719 L 907.222656 688.023438 C 914.984375 690.074219 923.164062 692.488281 932.949219 695.632812 Z M 345.414062 701.941406 L 343.253906 695.171875 C 352.882812 692.097656 361.300781 689.640625 369.019531 687.632812 L 370.804688 694.507812 C 363.21875 696.476562 354.90625 698.910156 345.414062 701.941406 Z M 499.746094 700.464844 C 490.339844 697.542969 482.015625 695.199219 474.308594 693.316406 L 475.996094 686.414062 C 483.847656 688.332031 492.300781 690.714844 501.859375 693.679688 Z M 776.441406 700.03125 L 774.347656 693.234375 C 783.886719 690.296875 792.359375 687.941406 800.246094 686.058594 L 801.898438 692.96875 C 794.171875 694.824219 785.839844 697.136719 776.441406 700.03125 Z M 68.707031 698.609375 C 59.371094 695.820312 51.023438 693.617188 43.199219 691.878906 L 44.746094 684.941406 C 52.738281 686.71875 61.246094 688.964844 70.75 691.796875 Z M 1207.5 698.183594 L 1205.484375 691.371094 C 1214.976562 688.566406 1223.496094 686.351562 1231.523438 684.613281 L 1233.03125 691.558594 C 1225.171875 693.261719 1216.824219 695.429688 1207.5 698.183594 Z M 888.339844 690.863281 C 879.128906 688.992188 870.65625 687.773438 862.421875 687.132812 L 862.964844 680.046875 C 871.492188 680.703125 880.257812 681.964844 889.75 683.894531 Z M 387.902344 690.570312 L 386.523438 683.601562 C 396.027344 681.71875 404.804688 680.527344 413.347656 679.941406 L 413.835938 687.027344 C 405.59375 687.597656 397.113281 688.75 387.902344 690.570312 Z M 457.160156 689.675781 C 447.964844 688.050781 439.476562 687.097656 431.1875 686.769531 L 431.472656 679.675781 C 440.089844 680.011719 448.890625 680.996094 458.402344 682.683594 Z M 819.082031 689.425781 L 817.890625 682.417969 C 827.414062 680.792969 836.230469 679.878906 844.855469 679.621094 L 845.070312 686.726562 C 836.773438 686.976562 828.273438 687.855469 819.082031 689.425781 Z M 25.996094 688.660156 C 16.820312 687.304688 8.3125 686.644531 -0.0195312 686.644531 L -0.0195312 679.539062 C 8.660156 679.539062 17.503906 680.226562 27.035156 681.636719 Z M 1250.261719 688.449219 L 1249.269531 681.414062 C 1258.21875 680.152344 1266.570312 679.539062 1274.773438 679.539062 C 1274.785156 679.539062 1274.785156 679.539062 1274.792969 679.539062 L 1274.792969 686.644531 C 1274.785156 686.644531 1274.785156 686.644531 1274.773438 686.644531 C 1266.90625 686.644531 1258.886719 687.230469 1250.261719 688.449219 Z M 1250.261719 688.449219 " fill-opacity="1" fill-rule="nonzero"/><g clip-path="url(#a34a8c19be)"><path fill="#ffffff" d="M 1341.519531 743.335938 L 1350.996094 743.636719 L 1364.441406 724.703125 L 1369.734375 724.871094 C 1371.519531 724.925781 1373.011719 723.53125 1373.066406 721.746094 C 1373.117188 719.960938 1371.722656 718.46875 1369.9375 718.414062 L 1368.933594 718.378906 L 1373.296875 712.242188 L 1377.996094 712.394531 C 1379.78125 712.445312 1381.273438 711.050781 1381.324219 709.265625 C 1381.378906 707.480469 1379.984375 705.988281 1378.199219 705.9375 L 1377.789062 705.925781 L 1384.664062 696.253906 L 1402.203125 697.625 C 1407.753906 698.058594 1420.6875 694.027344 1420.863281 688.457031 C 1421.042969 682.898438 1408.394531 678.046875 1402.828125 678.128906 L 1385.019531 678.378906 L 1378.777344 668.269531 L 1379.40625 668.289062 C 1381.191406 668.339844 1382.683594 666.945312 1382.738281 665.160156 C 1382.789062 663.375 1381.394531 661.882812 1379.609375 661.832031 L 1374.691406 661.671875 L 1370.730469 655.269531 L 1371.953125 655.304688 C 1373.738281 655.355469 1375.230469 653.960938 1375.285156 652.175781 C 1375.339844 650.390625 1373.945312 648.898438 1372.160156 648.847656 L 1366.644531 648.667969 L 1354.433594 628.917969 L 1344.957031 628.613281 L 1357.859375 678.75 L 1313.789062 679.363281 L 1302.777344 661.554688 C 1302.351562 660.863281 1301.613281 660.4375 1300.796875 660.410156 C 1299.191406 660.355469 1297.980469 661.867188 1298.382812 663.421875 L 1303.628906 683.804688 C 1303.726562 684.1875 1303.871094 684.550781 1304.039062 684.894531 C 1303.84375 685.226562 1303.683594 685.582031 1303.570312 685.960938 L 1297.039062 705.972656 C 1296.542969 707.5 1297.652344 709.082031 1299.261719 709.132812 C 1300.070312 709.160156 1300.84375 708.777344 1301.304688 708.121094 L 1313.488281 690.960938 C 1313.542969 690.882812 1313.59375 690.8125 1313.648438 690.730469 L 1357.59375 694.152344 Z M 1341.519531 743.335938 " fill-opacity="1" fill-rule="nonzero"/></g></svg>